<svg id="Layer_1" data-name="Layer 1" xmlns="http://www.w3.org/2000/svg" viewBox="0 0 240 31.54"><defs><style>.cls-1,.cls-2{fill:#005880;}.cls-1{fill-rule:evenodd;}</style></defs><path class="cls-1" d="M32.86,22.05l-.2-.18.2.18ZM21.09,16.66c.3.3.61.59.91.9l-.91-.9Zm9.08,9.88.14.17-.14-.17Zm1.47,1.8.19.24-.19-.24ZM27.92,17.75v0l-.65-.52h0l0,0L26.89,17h0l-.26-.2-.05,0-.05-.05h0l0,0-.05,0-.06,0-.05,0-.11-.09-.06,0,0,0h0l0,0-.06,0,0,0-.11-.08-.06-.05,0,0h0l-.06,0-.05,0-.06,0-.05-.05-.06,0-.05,0-.05,0h0l0,0-.06,0-.11-.08-.05,0-.06,0-.05,0h0l-.06,0-.05,0-.06,0-.05,0-.06,0,0,0-.06,0h0l-.05,0-.06,0L24.36,15l-.07,0-.06-.05-.07-.05h0l-.05,0L24,14.77l-.07,0-.07-.05-.06-.05-.07,0h0l-.07-.05-.07,0-.07-.05-.07-.05-.07,0,0,0h0l-.06,0-.07-.05-.07-.05-.07,0L23,14l0,0,0,0-.07-.05-.07-.05-.07,0-.07-.05-.07,0h0l-.05,0-.2-.14-.07,0-.07-.05h0l-.06,0L22,13.33,22,13.28l-.14-.09-.06,0h0l-.35-.25,0,0h0l-.14-.1-.07-.05-.07,0-.07,0,0,0,0,0-.07-.05-.07,0-.07-.05-.07,0-.07,0h0l-.06,0h0l-.12-.08-.07,0-.08-.05-.06,0h0l-.07,0L20,11.94l-.19-.13-.07-.05-.13-.08L19,11.29l-.1-.06-.1-.07-.31-.2-.08-.05-.2-.13-.14-.08-.06,0-.2-.13-.15-.1,0,0-.2-.13-.18-.11h0L17,10l-.19-.12h0l-.2-.12-.2-.13h0l-.19-.12L16,9.42l0,0-.18-.1-.2-.12,0,0-.16-.09-.2-.12-.07,0L15,8.82l-.2-.12-.08,0-.12-.07-.2-.12-.1-.06-.11-.06L14,8.23l-.12-.07-.09-.05L13.58,8l-.14-.08-.06,0-.21-.12L13,7.67l0,0-.21-.12-.18-.09,0,0-.33-.18-.07,0h0l-.2-.11L11.73,7h0l-.2-.11-.21-.11h0l-.18-.1-.21-.11,0,0-.17-.09-.21-.11-.06,0-.15-.08-.21-.11L10,6,9.86,6l-.21-.11-.1,0-.11-.06-.21-.11-.12-.06L9,5.55l-.21-.11-.14-.07-.07,0-.36-.18h0l-.06,0L8,5l-.17-.08,0,0-.21-.1-.19-.1h0l-.22-.1-.21-.1.18.13.18.13.08.06.09.08.34.25h0l.35.27.07,0,.11.09.17.13.15.11,0,0L8.85,6,9,6.11l.05,0,.13.1.17.14.13.09,0,0,.18.14.17.14,0,0,.15.11.17.14.11.09.06,0,.18.14.17.13v0l.34.26.09.08.08.06.34.28h0l.17.14.17.14.08.06.1.08.17.14.15.13h0l.17.14.17.14.06.05L13,9.3l.17.15.13.11,0,0,.17.14.16.15.05,0,.12.11.17.14.12.1.05.05.17.14.17.14,0,0,.14.12.17.14.1.09L15,11l.33.29h0l.16.13.16.15.09.08.08.07.16.14.17.15h0l.17.15.16.15.07.06.09.08.17.15.14.13,0,0,.17.15.16.15.06.05.1.1.17.14.13.12,0,0A112.14,112.14,0,0,0,0,30.3,109.42,109.42,0,0,1,21.09,16.66h0l.91.9.08.08.07.07.69.7.05.06.3.3,0,0,.12.13.15.15.11.11,0,0,.29.31,0,0,.36.38,0,0,0,0,.29.31.06.06.24.25.13.15h0l0,0,.25.27.07.07.08.09.29.31h0l.28.32.08.08.21.23.14.16,0,0,.12.14.15.16.09.1,0,.05.14.16.14.16,0,0,.36.4,0,0,.28.32,0,0,.1.11.26.3,0,0,.28.32.05.06.35.41h0l.28.33.07.08.07.08.13.16.14.17h0l.13.16.14.17.07.09.06.07.14.16h0l.18.25,1.15,1.42v0q.38-3.25,1-6.47h0A77.82,77.82,0,0,1,40.61,0,111.54,111.54,0,0,0,20.68,11.11q2.37,1.58,4.63,3.29c1.29-.57,2.6-1.11,3.91-1.63a16.39,16.39,0,0,0-1.3,5ZM41.09,5c6.06-.59,11.24,1.23,13.2,5.18,2.91,5.87-2.37,14.21-11.8,18.64-8.48,4-17.42,3.44-21.25-1,4.11,2.8,11.37,2.78,18.3-.47,8.82-4.14,13.76-11.95,11-17.43C49.07,6.91,45.49,5.21,41.09,5Z" transform="translate(0 0)"/><path class="cls-2" d="M128.62,8.17V5.85H148V8.17Z" transform="translate(0 0)"/><path class="cls-2" d="M90.43,25.66l-2.34-4.19h-16l-2.36,4.19h-3L78,5.85h4.22l11.2,19.81Zm-3.6-6.5-6.17-11h-1l-6.25,11Z" transform="translate(0 0)"/><path class="cls-2" d="M99.64,25.66V5.85h12.53c3.29.07,5.28.14,6,.23a4,4,0,0,1,1.73.68A3.35,3.35,0,0,1,121,8.12a9.16,9.16,0,0,1,.64,3.86,11.86,11.86,0,0,1-.34,3.15A3.72,3.72,0,0,1,120.21,17a4.37,4.37,0,0,1-1.66.92,12.36,12.36,0,0,1-2.67.3c-.44,0-1.68,0-3.71,0h-9.89v7.46Zm2.64-9.77h9.89c2.42,0,3.93-.05,4.51-.11a2.81,2.81,0,0,0,1.5-.61,1.91,1.91,0,0,0,.62-1.05,8.78,8.78,0,0,0,.17-2.06,10.87,10.87,0,0,0-.15-2.17,1.77,1.77,0,0,0-.59-1,3,3,0,0,0-1.47-.54q-.87-.11-4.59-.18h-9.89v7.72Z" transform="translate(0 0)"/><path class="cls-2" d="M128.62,25.66V14.23h18.69v2.31h-16v6.81h16.78v2.31Z" transform="translate(0 0)"/><polygon class="cls-2" points="155.02 5.85 159.42 5.85 176.74 23.22 177.35 23.22 177.35 5.85 179.99 5.85 179.99 25.66 175.53 25.66 158.24 8.35 157.66 8.35 157.66 25.66 155.02 25.66 155.02 5.85 155.02 5.85"/><polygon class="cls-2" points="186.58 5.85 209.06 5.85 209.06 8.17 199.17 8.17 199.17 25.66 196.53 25.66 196.53 8.17 186.58 8.17 186.58 5.85 186.58 5.85"/><path class="cls-2" d="M228.2,5.82a52.6,52.6,0,0,1,7.16.33,5.54,5.54,0,0,1,3,1.26,3.77,3.77,0,0,1,.91,1.41,10.32,10.32,0,0,1,.48,2.3,43.4,43.4,0,0,1,.22,4.73,34.09,34.09,0,0,1-.34,5.52,5.29,5.29,0,0,1-1.18,2.74,5,5,0,0,1-2.87,1.26,42.77,42.77,0,0,1-6.53.35c-1.48,0-3.14,0-4.94-.08s-3-.09-3.58-.14a9.38,9.38,0,0,1-2.33-.47A4.24,4.24,0,0,1,216.71,24a4.92,4.92,0,0,1-1.19-2.61,38.26,38.26,0,0,1-.29-5.67A24.2,24.2,0,0,1,215.88,9a4,4,0,0,1,3.58-2.76,67.7,67.7,0,0,1,8.74-.41ZM226.69,8.2a40.17,40.17,0,0,0-6.09.33,3.32,3.32,0,0,0-1.63.64,2.74,2.74,0,0,0-.71,1.49,26.62,26.62,0,0,0-.32,4.83,42.31,42.31,0,0,0,.18,4.78,3.67,3.67,0,0,0,.65,2,2.26,2.26,0,0,0,1.09.61,12.82,12.82,0,0,0,2.25.29q2.53.16,5.89.17a44,44,0,0,0,7-.39,2.3,2.3,0,0,0,2-2,30.16,30.16,0,0,0,.33-5,34,34,0,0,0-.3-5.49,2.35,2.35,0,0,0-2.24-1.93,25.7,25.7,0,0,0-2.58-.22c-1,0-2.8,0-5.52-.06Z" transform="translate(0 0)"/></svg>